<svg width="26" height="22" fill="none" xmlns="http://www.w3.org/2000/svg"><path d="M24.918 9.004h-.965V5.421c0-1.3-1.04-2.358-2.319-2.358H1.97a1.053 1.053 0 01-1.042-1.06c0-.584.468-1.06 1.042-1.06h19.203a.468.468 0 00.463-.472.468.468 0 00-.463-.471H1.969C.883 0 0 .899 0 2.003v17.303c0 1.3 1.04 2.358 2.318 2.358h.676a.468.468 0 00.464-.472.468.468 0 00-.464-.471h-.676c-.767 0-1.39-.635-1.39-1.415V3.7c.302.193.658.306 1.041.306h19.666c.766 0 1.39.635 1.39 1.415v3.583H18.97c-.597 0-1.082.494-1.082 1.1v4.519c0 .606.485 1.1 1.082 1.1h4.056v3.583c0 .78-.624 1.414-1.39 1.414H2.655a.472.472 0 00-.469.472c0 .26-.125.472.131.472h19.317c1.278 0 2.317-1.058 2.317-2.358v-3.583h.966c.597 0 1.082-.494 1.082-1.1v-4.519c0-.606-.485-1.1-1.082-1.1zm.155 5.619c0 .086-.07.157-.155.157h-5.95a.156.156 0 01-.154-.157v-4.519c0-.086.07-.157.155-.157h5.95c.084 0 .154.07.154.157v4.519zm-4.733-3.841a.468.468 0 00-.463.471v2.22c0 .26.207.472.463.472a.468.468 0 00.464-.472v-2.22a.468.468 0 00-.464-.471zm.832-9.25H2.318a.468.468 0 00-.464.47c0 .261.208.472.464.472h18.854a.468.468 0 00.463-.471.468.468 0 00-.463-.472z" fill="#9C8679"/></svg>