<svg width="24" height="24" fill="none" xmlns="http://www.w3.org/2000/svg"><path d="M3.2 19.6a1.2 1.2 0 100 2.4 1.2 1.2 0 000-2.4zm0 1.6a.4.4 0 110-.8.4.4 0 010 .8z" fill="#9C8679"/><path d="M20.8 17.6h-9.834l1.2-1.2L14 14.566l2.4-2.4 2.4-2.4L21.766 6.8 17.2 2.234l-.002-.002-.28.286L14.8 4.634l-.002-.002-.28.286L12.4 7.034l-.002-.002-.28.286L10 9.434l-.002-.002-.28.285-.284.283L7.6 11.834l-.002-.002-.28.285-.918.917V0H0v24h24v-6.4h-3.2zm-10.966 0h-1.28L6.28 15.348l-.516-.512.431-.44 1.387-1.41 3.45 3.414-1.198 1.2zm-2.634 0H2.966l.8-.8.117-.117 1.298-1.299.538.532 1.7 1.684H7.2zm.983-5.182l.211-.215 1.59-1.616L13.433 14 11.6 15.834l-3.417-3.416zm2.4-2.4l1.8-1.831 3.45 3.413L14 13.434l-3.417-3.416zm7.65-.818L16.4 11.034l-3.416-3.416 1.8-1.83L18.233 9.2zm2.4-2.4L18.8 8.634l-3.416-3.416 1.818-1.85 3.43 3.432zM.8.8h4.8v2.4H.8V.8zM.8 4h4.8v2.4H.8V4zm0 3.2h4.8v2.4H.8V7.2zm0 3.2h4.8v2.4H.8v-2.4zm0 3.2h4.8v.234L3.434 16H.8v-2.4zm0 3.2h1.834l-.8.8H.8v-.8zm6.4 6.4H.8v-4.8h6.4v4.8zm3.2 0H8v-4.8h2.4v4.8zm3.2 0h-2.4v-4.8h2.4v4.8zm.8 0v-4.8h2.4v4.8h-2.4zm3.2 0v-4.8H20v4.8h-2.4zm5.6 0h-2.4v-4.8h2.4v4.8z" fill="#9C8679"/></svg>