<svg version="1.0" xmlns="http://www.w3.org/2000/svg" width="341.333" height="341.333" viewBox="0 0 256 256"><path d="M72.9 4.4c-.1 0-.2 56-.3 124.3-.1 123.5-.1 124.2 1.9 124.5 1.1.2 3.3.1 5-.2l3-.5v-123c.1-67.7-.1-123.5-.3-124.2-.3-.9-8.5-1.7-9.3-.9zm18 2.3c-.1 1.6-.3 5.3-.5 8.3-1.2 15.3-.5 63.1 1.1 73 .2 1.4.7 5 1 8 .3 3 .8 6.6 1 8 1.1 7.4 1.7 13.5 3.2 31 1.5 18.4.8 74.1-1.2 88-.2 1.9-.7 5.5-.9 8-.6 5.9-2.5 18-3.2 20.2-.4 1.3 0 1.8 1.4 1.8 2 0 2.5-1.8 3.8-12 .2-1.9.6-4.9.8-6.5.3-1.7.8-5.7 1.1-9 .4-3.3.8-7.6 1-9.5 2.2-18.8 2.2-73.6.1-87-.3-1.4-.7-5.9-1.1-10-.3-4.1-.8-8.9-1.1-10.5-.6-3.5-1.2-8.5-1.9-17-.3-3.3-.8-7.1-1.2-8.5-.8-3.7-1.2-64.6-.4-71.1.8-6.5.5-7.9-1.5-7.9-.8 0-1.4 1.1-1.5 2.7zm14.6-1.6c-1.1 1.7-2.4 7.2-4.4 19.4-3 17.3-2.4 43.1 1.3 60.5 1.1 5.2 5.1 20.6 6 23 .3.8.7 2.6 1 4 .2 1.4 1.1 5.4 1.9 9 1.5 6.5 2 9.1 3.2 18.5.4 2.7.9 6.1 1.1 7.5 2.2 13.9 2.2 43.9 0 60.5-.2 1.6-.7 5-1 7.5-.8 6.7-1.9 12.5-4.5 23-.7 2.5-1.3 5.2-1.5 6.1-.2.8-1.1 3.2-2 5.3-1.5 3.7-1.5 3.7.6 3.4 1.6-.2 2.5-1.6 3.9-5.8 1.6-5.2 4.5-17.4 5.5-23 .2-1.4.7-3.6.9-5 .7-3.6 1.7-11.9 1.9-16.1.2-1.9.5-3.9.7-4.5.7-1.2.3-38-.5-46.4-.6-7-2.2-17.8-3.7-25-.5-2.5-1.1-5.9-1.4-7.5-.2-1.7-1.8-8.2-3.5-14.5-7.1-25.8-8.1-31.7-8.4-52.1-.3-15.1.7-25.7 3.9-39.7.9-3.7 1.6-7.1 1.6-7.7.1-1.4-1.8-1.8-2.6-.4z"/><path d="M119.2 5.7c-2 3.9-5.5 15.3-7.4 24.3-2.9 14-3.1 29.3-.4 43.6.7 3.9 5.6 18.6 6.6 19.9.7 1 7 16.9 7.5 19 .1.5.5 1.7.8 2.5 1.2 3.2 3.7 11.6 4.1 14 .3 1.4.5 2.5.6 2.5.4 0 4 19.4 4.7 25.5.8 6.9.8 37.2 0 42.4-.4 2.1-.9 5.7-1.2 8-1.7 11.4-7.1 29.8-11.7 39.4-2.4 4.9-2.4 7.9-.2 6.4 3.2-2 11.2-23.9 13.9-37.9 2.5-13 3.3-21.8 3.3-37.3 0-8.5-.4-18.2-.9-21.5-.5-3.3-1.1-8-1.5-10.5-.3-2.5-.8-5.4-1.1-6.5-.2-1.1-.6-3.1-.9-4.5-.3-1.4-.9-4.1-1.4-6-.5-1.9-.9-3.7-.9-4 0-1.1-8.5-24.9-10.8-30-3.3-7.4-7.1-18.9-7.7-23.1-.3-1.9-.8-4.5-1.1-5.9-1.9-8.4-.5-28 3.1-41.2 1.3-5.1 2.6-10 2.9-10.8.2-.8 1-3.2 1.9-5.2 2-4.6 2-4.8.1-4.8-.8 0-1.8.8-2.3 1.7z"/><path d="M132.2 7.2c-13.7 22.4-16.5 49.4-7.5 72.3 2.2 5.6 5.7 12.9 6.4 13.5.4.3 3.3 5.7 6.6 12 7.8 15.2 15.1 35.6 16.9 47 1.5 9.9 1.9 15.5 1.9 27 0 12-1 24.3-2 26-.2.4-.7 2.2-1 4.1-1.4 8.3-10.3 31.4-12.8 33-.5.3-.9 1-.9 1.5-.1.5-1.2 2.6-2.4 4.6-2.9 4.5-2.9 4.8-.6 4.8 3.5 0 15.6-24.4 18.7-37.6.2-1 1-3.9 1.6-6.4 1.1-4.4 1.8-9.1 2.3-14 .1-1.4.4-3 .7-3.5.6-1.5.3-20.1-.5-27.5-1.1-10-1.8-13.6-5-26.7-.4-1.7-5-14.3-7.5-20.7-1.5-3.8-7.2-15-10.5-20.6-3.2-5.5-9.6-18.7-10.2-20.9-4.3-17.5-4.5-30.8-.7-44.1 2.6-9.2 5-15.1 8.9-21.1 1.3-2.1 2.4-4.3 2.4-4.9 0-2.2-2.9-.8-4.8 2.2z"/><path d="M144.1 9.4c-9.8 13-14.2 27-13.7 43.2.5 15.8 4.4 25.5 18.8 47.5 32.5 49.5 36.8 92.9 13.4 134.6-2.9 5.2-9 13-12.5 16l-2.6 2.3h2.5c1.4-.1 3.2-.6 4.1-1.3 2.8-2.2 11-14 14.5-20.9 3.4-6.7 8.6-19.8 8-19.8-.2 0 .2-2.1 1-4.8 2.1-6.7 2.7-12.3 2.8-23.7.1-12.7-.8-19.3-4-31.9-4-16.1-14.8-39.2-24.3-52.3-1.7-2.4-3.1-4.7-3.1-5.1 0-.5-.8-1.7-1.8-2.8-1.7-1.7-7.2-11.9-9.3-16.9-6-14.9-5.5-35.1 1.3-49.5 2.3-4.9 8.8-14.9 11.3-17.3 2-2 1.9-2.7-.4-2.7-1.1 0-3.5 2.2-6 5.4z"/><path d="M156.8 10c-4.8 5.3-11.9 17.4-13.2 22.5-2.2 8.4-2.5 21.5-.7 29.8 2.1 9.6 12 28 19.8 36.7 1.5 1.8 5.6 7.1 9 11.8 15.8 22.1 23.6 44.5 23.6 67.7 0 6.8-.9 16.2-1.7 18.5-.3.8-.7 2.6-1 4-2.2 13.3-14.2 35.9-25 47.4-2 2.1-3.5 4-3.2 4.3.4.5 4.8.6 11.4.4 2.8-.1 3.9-1 8.2-6.9 9.6-13 18.2-32.7 21.5-49.7.4-1.7.8-8.7.9-15.6.4-14.6-1.1-25-5.5-38.2-3-9-9.8-23.9-11.1-24.5-.5-.2-.8-.8-.8-1.3 0-.6-2.2-4.2-4.9-8.2-4.1-6.1-7.7-11-19.6-26.2-2.8-3.5-8.5-15.8-10-21.5-1.9-6.9-1.9-17-.1-23.8 2.8-10.3 11.4-22.3 20.7-28.8 2.1-1.4 3.7-3 3.4-3.4-.2-.3-4-.7-8.5-.7l-8-.1-5.2 5.8z"/></svg>