<?xml version="1.0" standalone="no"?>
<!DOCTYPE svg PUBLIC "-//W3C//DTD SVG 20010904//EN"
 "http://www.w3.org/TR/2001/REC-SVG-20010904/DTD/svg10.dtd">
<svg version="1.0" xmlns="http://www.w3.org/2000/svg"
 width="256.000000pt" height="256.000000pt" viewBox="0 0 256.000000 256.000000"
 preserveAspectRatio="xMidYMid meet">
<metadata>
Created by potrace 1.11, written by Peter Selinger 2001-2013
</metadata>
<g transform="translate(0.000000,256.000000) scale(0.100000,-0.100000)"
fill="#000000" stroke="none">
<path d="M729 2516 c-1 0 -2 -560 -3 -1243 -1 -1235 -1 -1242 19 -1245 11 -2
33 -1 50 2 l30 5 0 1230 c1 677 -1 1235 -3 1242 -3 9 -85 17 -93 9z"/>
<path d="M909 2493 c-1 -16 -3 -53 -5 -83 -12 -153 -5 -631 11 -730 2 -14 7
-50 10 -80 3 -30 8 -66 10 -80 11 -74 17 -135 32 -310 15 -184 8 -741 -12
-880 -2 -19 -7 -55 -9 -80 -6 -59 -25 -180 -32 -202 -4 -13 0 -18 14 -18 20 0
25 18 38 120 2 19 6 49 8 65 3 17 8 57 11 90 4 33 8 76 10 95 22 188 22 736 1
870 -3 14 -7 59 -11 100 -3 41 -8 89 -11 105 -6 35 -12 85 -19 170 -3 33 -8
71 -12 85 -8 37 -12 646 -4 711 8 65 5 79 -15 79 -8 0 -14 -11 -15 -27z"/>
<path d="M1055 2509 c-11 -17 -24 -72 -44 -194 -30 -173 -24 -431 13 -605 11
-52 51 -206 60 -230 3 -8 7 -26 10 -40 2 -14 11 -54 19 -90 15 -65 20 -91 32
-185 4 -27 9 -61 11 -75 22 -139 22 -439 0 -605 -2 -16 -7 -50 -10 -75 -8 -67
-19 -125 -45 -230 -7 -25 -13 -52 -15 -61 -2 -8 -11 -32 -20 -53 -15 -37 -15
-37 6 -34 16 2 25 16 39 58 16 52 45 174 55 230 2 14 7 36 9 50 7 36 17 119
19 161 2 19 5 39 7 45 7 12 3 380 -5 464 -6 70 -22 178 -37 250 -5 25 -11 59
-14 75 -2 17 -18 82 -35 145 -71 258 -81 317 -84 521 -3 151 7 257 39 397 9
37 16 71 16 77 1 14 -18 18 -26 4z"/>
<path d="M1192 2503 c-20 -39 -55 -153 -74 -243 -29 -140 -31 -293 -4 -436 7
-39 56 -186 66 -199 7 -10 70 -169 75 -190 1 -5 5 -17 8 -25 12 -32 37 -116
41 -140 3 -14 5 -25 6 -25 4 0 40 -194 47 -255 8 -69 8 -372 0 -424 -4 -21 -9
-57 -12 -80 -17 -114 -71 -298 -117 -394 -24 -49 -24 -79 -2 -64 32 20 112
239 139 379 25 130 33 218 33 373 0 85 -4 182 -9 215 -5 33 -11 80 -15 105 -3
25 -8 54 -11 65 -2 11 -6 31 -9 45 -3 14 -9 41 -14 60 -5 19 -9 37 -9 40 0 11
-85 249 -108 300 -33 74 -71 189 -77 231 -3 19 -8 45 -11 59 -19 84 -5 280 31
412 13 51 26 100 29 108 2 8 10 32 19 52 20 46 20 48 1 48 -8 0 -18 -8 -23
-17z"/>
<path d="M1322 2488 c-137 -224 -165 -494 -75 -723 22 -56 57 -129 64 -135 4
-3 33 -57 66 -120 78 -152 151 -356 169 -470 15 -99 19 -155 19 -270 0 -120
-10 -243 -20 -260 -2 -4 -7 -22 -10 -41 -14 -83 -103 -314 -128 -330 -5 -3 -9
-10 -9 -15 -1 -5 -12 -26 -24 -46 -29 -45 -29 -48 -6 -48 35 0 156 244 187
376 2 10 10 39 16 64 11 44 18 91 23 140 1 14 4 30 7 35 6 15 3 201 -5 275
-11 100 -18 136 -50 267 -4 17 -50 143 -75 207 -15 38 -72 150 -105 206 -32
55 -96 187 -102 209 -43 175 -45 308 -7 441 26 92 50 151 89 211 13 21 24 43
24 49 0 22 -29 8 -48 -22z"/>
<path d="M1441 2466 c-98 -130 -142 -270 -137 -432 5 -158 44 -255 188 -475
325 -495 368 -929 134 -1346 -29 -52 -90 -130 -125 -160 l-26 -23 25 0 c14 1
32 6 41 13 28 22 110 140 145 209 34 67 86 198 80 198 -2 0 2 21 10 48 21 67
27 123 28 237 1 127 -8 193 -40 319 -40 161 -148 392 -243 523 -17 24 -31 47
-31 51 0 5 -8 17 -18 28 -17 17 -72 119 -93 169 -60 149 -55 351 13 495 23 49
88 149 113 173 20 20 19 27 -4 27 -11 0 -35 -22 -60 -54z"/>
<path d="M1568 2460 c-48 -53 -119 -174 -132 -225 -22 -84 -25 -215 -7 -298
21 -96 120 -280 198 -367 15 -18 56 -71 90 -118 158 -221 236 -445 236 -677 0
-68 -9 -162 -17 -185 -3 -8 -7 -26 -10 -40 -22 -133 -142 -359 -250 -474 -20
-21 -35 -40 -32 -43 4 -5 48 -6 114 -4 28 1 39 10 82 69 96 130 182 327 215
497 4 17 8 87 9 156 4 146 -11 250 -55 382 -30 90 -98 239 -111 245 -5 2 -8 8
-8 13 0 6 -22 42 -49 82 -41 61 -77 110 -196 262 -28 35 -85 158 -100 215 -19
69 -19 170 -1 238 28 103 114 223 207 288 21 14 37 30 34 34 -2 3 -40 7 -85 7
l-80 1 -52 -58z"/>
</g>
</svg>
